<svg width="146" height="145" viewBox="0 0 146 145" fill="none" xmlns="http://www.w3.org/2000/svg">
<path d="M140 73C140 108.899 110.899 138 75 138C39.1015 138 10 108.899 10 73C10 37.1015 39.1015 8 75 8C110.899 8 140 37.1015 140 73Z" fill="white"/>
<path d="M137.5 73C137.5 107.518 109.518 135.5 75 135.5C40.4822 135.5 12.5 107.518 12.5 73C12.5 38.4822 40.4822 10.5 75 10.5C109.518 10.5 137.5 38.4822 137.5 73Z" stroke="#069A65" stroke-opacity="0.74" stroke-width="5"/>
<g filter="url(#filter0_d_8_23)">
<path d="M38.9993 4.19189L4.70989 130.692C3.8482 133.871 6.24209 137 9.53574 137H48.1477C50.4181 137 52.4034 135.47 52.9824 133.275L86.345 6.77508C87.1814 3.60403 84.7898 0.5 81.5104 0.5H43.8251C41.5675 0.5 39.5899 2.01288 38.9993 4.19189Z" fill="#8598FC"/>
<path d="M90.8395 5.06962L84.2792 30.9008C84.0954 31.6244 84.076 32.38 84.2224 33.1121L104.196 132.981C104.664 135.318 106.716 137 109.099 137H136.385C139.703 137 142.1 133.828 141.195 130.636L105.841 5.96408C105.325 4.14669 103.83 2.77491 101.974 2.41817L96.6299 1.39036C94.03 0.890393 91.4911 2.50363 90.8395 5.06962Z" fill="#8598FC"/>
</g>
<defs>
<filter id="filter0_d_8_23" x="0.53294" y="0.5" width="144.855" height="144.5" filterUnits="userSpaceOnUse" color-interpolation-filters="sRGB">
<feFlood flood-opacity="0" result="BackgroundImageFix"/>
<feColorMatrix in="SourceAlpha" type="matrix" values="0 0 0 0 0 0 0 0 0 0 0 0 0 0 0 0 0 0 127 0" result="hardAlpha"/>
<feOffset dy="4"/>
<feGaussianBlur stdDeviation="2"/>
<feComposite in2="hardAlpha" operator="out"/>
<feColorMatrix type="matrix" values="0 0 0 0 0 0 0 0 0 0 0 0 0 0 0 0 0 0 0.25 0"/>
<feBlend mode="normal" in2="BackgroundImageFix" result="effect1_dropShadow_8_23"/>
<feBlend mode="normal" in="SourceGraphic" in2="effect1_dropShadow_8_23" result="shape"/>
</filter>
</defs>
</svg>
